<svg width="35" height="35" viewBox="0 0 35 35" fill="none" xmlns="http://www.w3.org/2000/svg">
<path d="M17.5 0C14.0388 0 10.6554 1.02636 7.77753 2.94928C4.89967 4.87221 2.65665 7.60533 1.33212 10.803C0.00758247 14.0007 -0.338976 17.5194 0.336265 20.9141C1.01151 24.3087 2.67822 27.4269 5.12564 29.8744C7.57306 32.3218 10.6913 33.9885 14.0859 34.6637C17.4806 35.339 20.9993 34.9924 24.197 33.6679C27.3947 32.3434 30.1278 30.1003 32.0507 27.2225C33.9736 24.3446 35 20.9612 35 17.5C35 15.2019 34.5474 12.9262 33.6679 10.803C32.7884 8.67984 31.4994 6.75065 29.8744 5.12563C28.2493 3.50061 26.3202 2.21156 24.197 1.33211C22.0738 0.452651 19.7981 0 17.5 0V0ZM19.25 24.5C19.25 24.9641 19.0656 25.4092 18.7374 25.7374C18.4093 26.0656 17.9641 26.25 17.5 26.25C17.0359 26.25 16.5908 26.0656 16.2626 25.7374C15.9344 25.4092 15.75 24.9641 15.75 24.5V15.75C15.75 15.2859 15.9344 14.8407 16.2626 14.5126C16.5908 14.1844 17.0359 14 17.5 14C17.9641 14 18.4093 14.1844 18.7374 14.5126C19.0656 14.8407 19.25 15.2859 19.25 15.75V24.5ZM17.5 12.25C17.1539 12.25 16.8155 12.1474 16.5278 11.9551C16.24 11.7628 16.0157 11.4895 15.8832 11.1697C15.7508 10.8499 15.7161 10.4981 15.7836 10.1586C15.8512 9.81912 16.0178 9.5073 16.2626 9.26256C16.5073 9.01782 16.8191 8.85115 17.1586 8.78362C17.4981 8.7161 17.8499 8.75075 18.1697 8.88321C18.4895 9.01566 18.7628 9.23996 18.9551 9.52775C19.1474 9.81554 19.25 10.1539 19.25 10.5C19.25 10.9641 19.0656 11.4092 18.7374 11.7374C18.4093 12.0656 17.9641 12.25 17.5 12.25Z" fill="#64809A" fill-opacity="0.5"/>
</svg>
