<svg width="35" height="35" viewBox="0 0 35 35" fill="none" xmlns="http://www.w3.org/2000/svg">
<path d="M17.5 0C14.0388 0 10.6554 1.02636 7.77753 2.94928C4.89967 4.8722 2.65665 7.60533 1.33212 10.803C0.00758237 14.0007 -0.338976 17.5194 0.336265 20.9141C1.01151 24.3087 2.67822 27.4269 5.12564 29.8744C7.57306 32.3218 10.6913 33.9885 14.0859 34.6637C17.4806 35.339 20.9993 34.9924 24.197 33.6679C27.3947 32.3434 30.1278 30.1003 32.0507 27.2225C33.9736 24.3446 35 20.9612 35 17.5C35 12.8587 33.1563 8.40752 29.8744 5.12563C26.5925 1.84374 22.1413 0 17.5 0V0ZM28.9297 11.6266L14.5578 25.9875L6.07032 17.5C5.78024 17.2099 5.61727 16.8165 5.61727 16.4062C5.61727 15.996 5.78024 15.6026 6.07032 15.3125C6.3604 15.0224 6.75383 14.8594 7.16407 14.8594C7.5743 14.8594 7.96774 15.0224 8.25782 15.3125L14.5797 21.6344L26.7641 9.46093C26.9077 9.3173 27.0782 9.20337 27.2659 9.12563C27.4535 9.0479 27.6547 9.00789 27.8578 9.00789C28.0609 9.00789 28.2621 9.0479 28.4497 9.12563C28.6374 9.20337 28.8079 9.3173 28.9516 9.46093C29.0952 9.60457 29.2091 9.77509 29.2869 9.96275C29.3646 10.1504 29.4046 10.3516 29.4046 10.5547C29.4046 10.7578 29.3646 10.959 29.2869 11.1466C29.2091 11.3343 29.0952 11.5048 28.9516 11.6484L28.9297 11.6266Z" fill="#408140" fill-opacity="0.6"/>
</svg>
